<?xml version="1.0" standalone="no"?>
<!DOCTYPE svg PUBLIC "-//W3C//DTD SVG 20010904//EN"
 "http://www.w3.org/TR/2001/REC-SVG-20010904/DTD/svg10.dtd">
<svg version="1.0" xmlns="http://www.w3.org/2000/svg"
 width="100.000000pt" height="100.000000pt" viewBox="0 0 100.000000 100.000000"
 preserveAspectRatio="xMidYMid meet">
<metadata>
Created by potrace 1.11, written by Peter Selinger 2001-2013
</metadata>
<g transform="translate(0.000000,100.000000) scale(0.100000,-0.100000)"
fill="#000000" stroke="none">
<path d="M390 963 c-14 -2 -57 -20 -96 -39 -95 -45 -172 -123 -221 -222 -38
-76 -38 -77 -38 -201 0 -125 0 -127 37 -202 49 -101 126 -178 227 -227 75 -37
77 -37 201 -37 124 0 126 0 201 37 101 49 178 126 227 227 37 75 37 77 37 202
0 124 0 125 -38 201 -50 101 -126 177 -226 225 -71 34 -83 37 -181 39 -58 1
-116 0 -130 -3z m301 -65 c39 -19 88 -55 125 -93 50 -51 66 -76 88 -137 25
-68 28 -86 24 -180 -3 -93 -6 -110 -35 -169 -40 -81 -96 -146 -153 -178 -24
-13 -40 -20 -37 -14 3 5 -5 27 -18 49 -22 37 -23 40 -7 59 9 11 10 14 2 8 -21
-19 -36 -16 -47 10 -9 20 -6 27 28 56 49 41 79 99 86 166 20 195 -188 333
-364 242 -111 -58 -162 -193 -116 -308 16 -40 15 -42 -3 -56 -10 -7 -24 -11
-31 -9 -7 3 -13 2 -13 -3 0 -4 -18 -16 -40 -26 -22 -10 -40 -22 -40 -27 0 -24
-20 -2 -41 45 -34 78 -39 222 -10 310 29 87 73 150 140 203 87 68 135 83 277
83 116 1 123 0 185 -31z m-233 -645 c39 -5 42 -8 42 -36 0 -30 0 -30 -45 -24
-25 4 -59 14 -75 22 -27 14 -28 18 -17 36 8 14 18 18 32 14 11 -4 39 -9 63
-12z m-39 -70 l79 -26 4 -44 3 -43 -38 0 c-44 0 -155 35 -177 56 -8 8 -10 14
-4 14 5 0 18 16 28 35 11 19 21 35 23 35 2 0 39 -12 82 -27z"/>
</g>
</svg>
